<?xml version="1.0" encoding="utf-8"?>
<!-- Generator: Adobe Illustrator 25.2.1, SVG Export Plug-In . SVG Version: 6.00 Build 0)  -->
<svg version="1.1" id="Capa_1" xmlns="http://www.w3.org/2000/svg" xmlns:xlink="http://www.w3.org/1999/xlink" x="0px" y="0px"
	 viewBox="0 0 351.1 351.1" style="enable-background:new 0 0 351.1 351.1;" xml:space="preserve">
<style type="text/css">
	.st0{fill:#7D527A;}
</style>
<g>
	<path class="st0" d="M72.3,147.3c4.3-26.9,37.9-55.7,64.3-56.3c1.8,0,3.7-0.6,4.9-1.8c1.2-0.6,2.4-1.2,3.1-3.1
		c9.2-17.1,4.3-30.6-11-41.6c-17.7-12.9-45.9,0-60,11.6C38.1,85.5,1.9,136.3,3.8,184.7c-6.1,32.4-4.9,67.3,4.3,96.1
		c6.1,18.4,23.9,27.5,42.2,28.8c18.4,1.2,56.3,6.7,72.8-4.3c16.5-11,17.7-32.4,19.6-50.8c1.8-20.2,7.3-58.1-9.8-74.1
		C115.8,165.1,66.8,181.6,72.3,147.3z"/>
	<path class="st0" d="M274.3,147.3c4.3-26.9,37.9-55.7,64.3-56.3c1.8,0,3.7-0.6,4.9-1.8c1.2-0.6,2.4-1.2,3.1-3.1
		c9.2-17.1,4.3-30.6-11-41.6c-17.7-12.9-45.9,0-60,11.6c-35.5,29.4-71.6,80.2-69.8,128.5c-6.1,32.4-4.9,67.3,4.3,96.1
		c6.1,18.4,23.9,27.5,42.2,28.8c18.4,1.2,56.3,6.7,72.8-4.3c16.5-11,17.7-32.4,19.6-50.8c1.8-20.2,7.3-58.1-9.8-74.1
		C317.7,165.1,268.2,181.6,274.3,147.3z"/>
</g>
</svg>
